<?xml version="1.0" encoding="UTF-8" standalone="no"?>
<!-- Created with Inkscape (http://www.inkscape.org/) -->

<svg
   xmlns:dc="http://purl.org/dc/elements/1.1/"
   xmlns:cc="http://creativecommons.org/ns#"
   xmlns:rdf="http://www.w3.org/1999/02/22-rdf-syntax-ns#"
   xmlns:svg="http://www.w3.org/2000/svg"
   xmlns="http://www.w3.org/2000/svg"
   xmlns:sodipodi="http://sodipodi.sourceforge.net/DTD/sodipodi-0.dtd"
   xmlns:inkscape="http://www.inkscape.org/namespaces/inkscape"
   width="242.09406mm"
   height="49.683334mm"
   viewBox="0 0 242.09406 49.683334"
   version="1.1"
   id="svg2262"
   inkscape:version="0.92.3 (2405546, 2018-03-11)"
   sodipodi:docname="geostyler-logo-full-white-halo.svg"
   inkscape:export-filename="/home/mjansen/Downloads/geostyler-logo-full.png"
   inkscape:export-xdpi="93.045288"
   inkscape:export-ydpi="93.045288">
  <defs
     id="defs2256">
    <filter
       inkscape:collect="always"
       style="color-interpolation-filters:sRGB"
       id="filter2222"
       x="-0.020425612"
       width="1.0408512"
       y="-0.020374453"
       height="1.040749">
      <feGaussianBlur
         inkscape:collect="always"
         stdDeviation="2.4064265"
         id="feGaussianBlur2224" />
    </filter>
  </defs>
  <sodipodi:namedview
     id="base"
     pagecolor="#000000"
     bordercolor="#666666"
     borderopacity="1.0"
     inkscape:pageopacity="0"
     inkscape:pageshadow="2"
     inkscape:zoom="2.9469416"
     inkscape:cx="88.323179"
     inkscape:cy="58.49164"
     inkscape:document-units="mm"
     inkscape:current-layer="layer1"
     showgrid="false"
     fit-margin-top="5"
     fit-margin-right="5"
     fit-margin-bottom="5"
     fit-margin-left="5"
     inkscape:window-width="1916"
     inkscape:window-height="1176"
     inkscape:window-x="1920"
     inkscape:window-y="20"
     inkscape:window-maximized="1" />
  <metadata
     id="metadata2259">
    <rdf:RDF>
      <cc:Work
         rdf:about="">
        <dc:format>image/svg+xml</dc:format>
        <dc:type
           rdf:resource="http://purl.org/dc/dcmitype/StillImage" />
        <dc:title></dc:title>
      </cc:Work>
    </rdf:RDF>
  </metadata>
  <g
     inkscape:label="Ebene 1"
     inkscape:groupmode="layer"
     id="layer1"
     transform="translate(130.11846,-95.265474)">
    <path
       transform="matrix(0.26458333,0,0,0.26458333,-130.11846,95.265474)"
       style="font-style:normal;font-variant:normal;font-weight:normal;font-stretch:normal;font-size:37.00954056px;line-height:1.25;font-family:Aldrich;-inkscape-font-specification:'Aldrich, Normal';font-variant-ligatures:normal;font-variant-caps:normal;font-variant-numeric:normal;font-feature-settings:normal;text-align:start;letter-spacing:0px;word-spacing:0px;writing-mode:lr-tb;text-anchor:start;fill:#ffffe8;fill-opacity:1;stroke:none;stroke-width:3.49696469;stroke-opacity:1"
       d="m 721.76562,25.542969 c -7.34761,8.81e-4 -13.3038,5.957077 -13.30468,13.304687 V 53.5625 c -0.28018,-0.01995 -0.56092,-0.03102 -0.8418,-0.0332 h -14.14648 c -5.33791,3.48e-4 -10.15897,3.19055 -12.2461,8.103515 l -9.00781,21.205079 -9.00781,-21.205079 c -2.08713,-4.912965 -6.90819,-8.103167 -12.2461,-8.103515 h -14.14648 c -2.4608,0.006 -4.87174,0.694246 -6.96484,1.988281 -2.09649,-1.296122 -4.51178,-1.984466 -6.97657,-1.988281 H 612.26172 V 44.445312 C 612.26084,37.097698 606.30464,31.1415 598.95703,31.140625 h -13.46289 c -7.34761,8.75e-4 -13.30381,5.957073 -13.30469,13.304687 v 9.083985 h -4.46484 c -2.24611,0.0012 -4.45535,0.571007 -6.42188,1.65625 -0.0584,-3.439782 -0.74474,-6.953818 -2.125,-10.164063 -1.35205,-3.185531 -3.36923,-6.21437 -5.92578,-8.701172 -2.43714,-2.411548 -5.3596,-4.333141 -8.45507,-5.666015 -3.37512,-1.516952 -7.12163,-2.3125 -10.76368,-2.3125 h -47.5664 c -3.68172,0 -7.44462,0.79726 -10.82618,2.296875 -3.09111,1.348054 -5.98107,3.295065 -8.39062,5.679687 -2.55237,2.482381 -4.57224,5.509557 -5.92773,8.703125 -1.44101,3.351534 -2.16993,7.035805 -2.16993,10.619141 v 12.826172 c -1.27301,-2.582499 -2.91028,-5.03143 -4.98632,-7.070313 -2.36933,-2.407303 -5.25006,-4.33713 -8.30274,-5.640625 -3.33207,-1.484966 -6.99033,-2.226562 -10.51562,-2.226562 h -36.15235 c -3.54318,0 -7.17388,0.759132 -10.44922,2.189453 -3.11213,1.317928 -6.04213,3.253993 -8.45117,5.660156 -2.39028,2.38743 -4.29029,5.238774 -5.625,8.238282 -0.0258,0.05841 -0.0512,0.117005 -0.0762,0.175781 l 0.0469,0.109375 c -0.0139,-0.03329 -0.0387,-0.06246 -0.0527,-0.0957 l -0.006,0.01367 c -0.008,-0.01948 -0.011,-0.04109 -0.0195,-0.06055 -1.3065,-3.07715 -3.25663,-5.977866 -5.68555,-8.363282 -2.38726,-2.425527 -5.29088,-4.374005 -8.36914,-5.677734 -3.31935,-1.44899 -6.97217,-2.189453 -10.51758,-2.189453 h -34.71679 c -3.54319,0 -7.17387,0.759117 -10.44922,2.189453 -3.10884,1.316451 -6.03922,3.249123 -8.45313,5.660156 -2.07489,2.072425 -3.69365,4.522171 -4.97656,7.076172 l 0.006,-0.1875 V 55.640625 c 0,-3.583336 -0.72891,-7.267607 -2.16992,-10.619141 -1.35205,-3.185531 -3.36923,-6.21437 -5.92578,-8.701172 -2.43714,-2.411547 -5.35962,-4.333142 -8.45508,-5.666015 -3.37508,-1.51693 -7.12163,-2.3125 -10.76367,-2.3125 h -53.16992 c -3.68172,0 -7.44462,0.79726 -10.82618,2.296875 -3.09111,1.348054 -5.98107,3.295065 -8.39062,5.679687 -2.55243,2.482418 -4.57226,5.509595 -5.92774,8.703125 -1.441,3.351534 -2.16992,7.035805 -2.16992,10.619141 v 69.896485 c 0,3.60417 0.7285,7.28374 2.13867,10.62891 0.0167,0.0398 0.0337,0.0795 0.0508,0.11914 1.36802,3.15977 3.36247,6.11539 5.81445,8.56445 2.45408,2.4511 5.41521,4.44082 8.56836,5.80273 0.039,0.0164 0.078,0.0327 0.11719,0.0488 3.33869,1.40407 7.01649,2.13477 10.625,2.13477 h 53.16992 c 3.587,0 7.26671,-0.72977 10.61133,-2.16406 3.18264,-1.34689 6.20103,-3.32518 8.70117,-5.82227 2.45677,-2.45385 4.44791,-5.41262 5.8125,-8.56445 0.0171,-0.0396 0.0341,-0.0793 0.0508,-0.11914 0.28352,-0.67256 0.41455,-1.40138 0.64258,-2.09766 0.24546,0.79848 0.39918,1.6238 0.7207,2.39453 0.0399,0.0955 0.0809,0.19059 0.12305,0.28516 1.31398,2.95293 3.15885,5.75151 5.44726,8.125 0.11624,0.12072 0.23475,0.23923 0.35547,0.35547 2.37895,2.28811 5.17636,4.12594 8.13086,5.4375 0.0952,0.0421 0.19093,0.0832 0.28711,0.12304 3.24657,1.3511 6.81376,2.04688 10.30469,2.04688 h 48.17968 c 6.98242,-7e-4 12.77666,-5.39842 13.27149,-12.36328 0.99542,1.56475 2.10359,3.06145 3.39453,4.40039 0.11624,0.12072 0.23475,0.23923 0.35547,0.35547 2.37389,2.28324 5.17086,4.12436 8.12891,5.4375 0.0952,0.0421 0.19092,0.0832 0.2871,0.12304 3.24656,1.35109 6.81377,2.04688 10.30469,2.04688 h 36.15235 c 3.49578,0 7.11315,-0.67717 10.43164,-2.09766 0.0542,-0.0237 0.10823,-0.0478 0.16211,-0.0723 2.99986,-1.3317 5.85168,-3.22758 8.24023,-5.61329 2.4057,-2.40274 4.3475,-5.32907 5.66992,-8.44335 0.0491,-0.11207 0.0639,-0.23677 0.11133,-0.34961 0.004,0.008 0.008,0.0169 0.0117,0.0254 1.36804,3.15981 3.3625,6.11542 5.81445,8.56445 2.4541,2.45113 5.41521,4.44082 8.56836,5.80273 0.039,0.0165 0.0781,0.0327 0.11719,0.0488 3.34196,1.40544 7.01844,2.13477 10.62695,2.13477 h 48.93164 c 3.58701,0 7.26668,-0.72974 10.61133,-2.16406 3.18267,-1.34689 6.20104,-3.32518 8.70117,-5.82227 2.45678,-2.45385 4.44792,-5.41262 5.8125,-8.56445 0.0171,-0.0396 0.0341,-0.0793 0.0508,-0.11914 1.41018,-3.34517 2.13868,-7.02474 2.13868,-10.62891 V 97.619141 c 0,-2.037966 -0.29499,-4.091416 -0.76172,-6.115235 2.13334,1.358316 4.60961,2.080532 7.13867,2.082032 h 4.46484 v 32.498042 c 0,3.49156 0.67701,7.08575 2.05078,10.37891 0.0399,0.0955 0.0809,0.19059 0.12305,0.28516 1.35589,3.04712 3.29975,5.91597 5.69141,8.30468 0.0593,0.0592 0.11924,0.11776 0.17969,0.17579 2.37897,2.28814 5.1764,4.12595 8.13085,5.4375 0.0952,0.0421 0.19093,0.0831 0.28711,0.12304 3.24656,1.35109 6.81377,2.04688 10.30469,2.04688 h 23.91992 c 7.34761,-8.8e-4 13.30381,-5.95708 13.30469,-13.30469 v -13.44727 c -8.8e-4,-7.34765 -5.95713,-13.30385 -13.30478,-13.30468 H 612.26172 V 93.585938 h 10.61523 c 3.4984,-0.004 6.85449,-1.385601 9.3418,-3.845704 l 18.69336,43.283206 -13.01563,30.66015 c -3.72326,8.77451 2.71628,18.50313 12.24805,18.50391 h 13.39453 c 5.30878,-1.3e-4 10.10951,-3.15584 12.21485,-8.0293 l 32.70703,-75.718747 v 41.091797 c 8.8e-4,7.34761 5.95707,13.30381 13.30468,13.30469 h 13.39454 c 7.02546,-0.003 12.83835,-5.46667 13.27539,-12.47852 1.01152,1.60643 2.13724,3.14474 3.45898,4.51563 0.11624,0.12072 0.23475,0.23923 0.35547,0.35547 2.37389,2.28324 5.17086,4.12436 8.12891,5.4375 0.0952,0.0421 0.19093,0.0831 0.28711,0.12304 3.24655,1.35109 6.81376,2.04688 10.30468,2.04688 h 48.18164 c 4.52001,-0.001 8.73033,-2.29687 11.17969,-6.09571 2.4471,3.79534 6.65212,6.09053 11.16797,6.09571 h 13.39453 c 7.34761,-8.8e-4 13.30381,-5.95708 13.30469,-13.30469 V 93.585938 h 1.1875 c 0.5322,6.928032 6.30547,12.280172 13.2539,12.287112 h 13.4629 c 7.34761,-8.8e-4 13.30381,-5.95708 13.30468,-13.304691 V 80.28125 c 0,-3.551177 -0.74642,-7.206675 -2.19726,-10.521484 -1.3201,-3.109194 -3.29144,-6.05751 -5.76953,-8.464844 -2.3773,-2.349964 -5.24086,-4.24018 -8.28321,-5.539063 -3.32953,-1.484455 -6.99111,-2.226562 -10.51758,-2.226562 h -14.2832 c -2.59716,0 -5.22055,0.518008 -7.76758,1.296875 -1.77895,-0.84878 -3.72425,-1.291743 -5.69531,-1.296875 H 841.5 c -7.02263,0.0024 -12.8344,5.461934 -13.27539,12.470703 -1.05085,-1.659042 -2.2477,-3.225939 -3.65039,-4.603516 -2.38729,-2.425551 -5.2909,-4.374013 -8.36914,-5.677734 -3.31937,-1.449005 -6.97217,-2.189453 -10.51758,-2.189453 h -34.7168 c -3.54318,0 -7.17388,0.759132 -10.44922,2.189453 -3.11213,1.317928 -6.04213,3.253993 -8.45117,5.660156 -1.39108,1.389421 -2.56142,2.960492 -3.60547,4.601563 V 38.847656 c -8.8e-4,-7.34761 -5.95707,-13.303806 -13.30468,-13.304687 z m 136.53126,29.958984 c -0.05,0.01998 -0.0946,0.05391 -0.14454,0.07422 -0.0504,0.02118 -0.10598,0.02731 -0.15625,0.04883 z m -14.20704,13.511719 c -0.009,0.01995 -0.0121,0.04252 -0.0215,0.0625 -0.0112,0.02435 -0.0299,0.04594 -0.041,0.07031 z m -384.2832,0.603516 c 0.041,0.09505 0.071,0.190104 0.0449,0.142578 -0.02,-0.04566 -0.0247,-0.09705 -0.0449,-0.142578 z m 370.4082,0 c 0.041,0.09505 0.071,0.190104 0.0449,0.142578 -0.02,-0.04566 -0.0247,-0.09705 -0.0449,-0.142578 z m -285.625,2.83789 c 0.0391,0.01628 0.0755,0.03581 0.0547,0.0293 -0.0189,-0.008 -0.0358,-0.02134 -0.0547,-0.0293 z m 14.56836,14.484375 c 0.0169,0.03971 0.0287,0.07878 0.0176,0.05859 -0.008,-0.01874 -0.009,-0.03988 -0.0176,-0.05859 z"
       id="path7589"
       inkscape:connector-curvature="0"
       sodipodi:nodetypes="cccccccccccccccccccccccsscccscccsscsccccccccssccccscccsscccsscccccsscccccccccccsccccccsscccccccccssccccsscccsccccccsccccccccccccccccccccccsccccccccccscccssccccccsscscccccccccccccccccccccccc" />
    <circle
       style="opacity:1;fill:#feffff;fill-opacity:1;stroke:#ffffff;stroke-width:2.29754114;stroke-miterlimit:6.4000001;stroke-dasharray:none;stroke-opacity:1"
       id="path7089"
       cx="-107.51347"
       cy="117.29396"
       r="19.253653" />
    <g
       id="g2212"
       transform="matrix(0.11869884,0,0,0.11869884,-124.43292,100.95101)"
       style="fill:#272c02;fill-opacity:1;filter:url(#filter2222)">
      <g
         id="g2210"
         style="fill:#272c02;fill-opacity:1">
        <g
           id="g2208"
           stroke-miterlimit="10"
           style="fill:#272c02;fill-opacity:1;stroke:#12120d;stroke-miterlimit:10">
          <path
             id="path2196"
             d="m 13.421,202.756 a 141.851,141.851 0 0 0 20.186,31.023 h 215.54 a 141.884,141.884 0 0 0 20.185,-31.023 z"
             inkscape:connector-curvature="0"
             style="fill:#272c02;fill-opacity:1" />
          <path
             id="path2198"
             d="m 0,151.732 a 141.263,141.263 0 0 0 5.681,31.023 h 271.392 a 141.285,141.285 0 0 0 5.681,-31.023 z"
             inkscape:connector-curvature="0"
             style="fill:#272c02;fill-opacity:1" />
          <path
             id="path2200"
             d="M 5.683,100.709 A 141.287,141.287 0 0 0 0,131.732 h 282.752 a 141.264,141.264 0 0 0 -5.682,-31.023 z"
             inkscape:connector-curvature="0"
             style="fill:#272c02;fill-opacity:1" />
          <path
             id="path2202"
             d="m 54.581,253.779 c 23.982,18.604 54.093,29.685 86.796,29.685 32.702,0 62.812,-11.081 86.795,-29.685 z"
             inkscape:connector-curvature="0"
             style="fill:#272c02;fill-opacity:1" />
          <path
             id="path2204"
             d="M 33.61,49.686 A 141.912,141.912 0 0 0 13.424,80.709 H 269.33 A 141.88,141.88 0 0 0 249.143,49.686 Z"
             inkscape:connector-curvature="0"
             style="fill:#272c02;fill-opacity:1" />
          <path
             id="path2206"
             d="M 228.169,29.686 C 204.188,11.081 174.079,0 141.377,0 108.675,0 78.565,11.081 54.583,29.686 Z"
             inkscape:connector-curvature="0"
             style="fill:#272c02;fill-opacity:1" />
        </g>
      </g>
    </g>
    <path
       id="path1449-1"
       d="m -122.83986,124.48874 a 16.837549,16.837549 0 0 0 2.39605,3.6824 h 25.58435 a 16.841466,16.841466 0 0 0 2.395936,-3.6824 z"
       inkscape:connector-curvature="0"
       style="fill:#f48e00;stroke:#ffffff;stroke-width:0.119;stroke-miterlimit:10;stroke-opacity:1;stroke-dasharray:none" />
    <path
       id="path1451-3"
       d="m -124.43292,118.43225 a 16.767754,16.767754 0 0 0 0.67433,3.6824 h 32.213914 a 16.770366,16.770366 0 0 0 0.674328,-3.6824 z"
       inkscape:connector-curvature="0"
       style="fill:#ffed00;stroke:#ffffff;stroke-width:0.119;stroke-miterlimit:10;stroke-opacity:1;stroke-dasharray:none" />
    <path
       id="path1453-3"
       d="m -123.75835,112.37588 a 16.770603,16.770603 0 0 0 -0.67457,3.6824 h 33.562334 a 16.767873,16.767873 0 0 0 -0.674446,-3.6824 z"
       inkscape:connector-curvature="0"
       style="fill:#00943d;stroke:#ffffff;stroke-width:0.119;stroke-miterlimit:10;stroke-opacity:1;stroke-dasharray:none" />
    <path
       id="path1455-3"
       d="m -117.95422,130.54511 c 2.84664,2.20828 6.42078,3.52358 10.30259,3.52358 3.88169,0 7.45571,-1.3153 10.302462,-3.52358 z"
       inkscape:connector-curvature="0"
       style="fill:#e7000e;stroke:#ffffff;stroke-width:0.119;stroke-miterlimit:10;stroke-opacity:1;stroke-dasharray:none" />
    <path
       id="path1457-7"
       d="m -120.44345,106.31951 a 16.84479,16.84479 0 0 0 -2.39606,3.68239 h 30.375749 a 16.840991,16.840991 0 0 0 -2.396174,-3.68239 z"
       inkscape:connector-curvature="0"
       style="fill:#272c82;stroke:#ffffff;stroke-width:0.119;stroke-miterlimit:10;stroke-opacity:1;stroke-dasharray:none" />
    <path
       id="path1459-9"
       d="m -97.349524,103.94553 c -2.846516,-2.20839 -6.420416,-3.52369 -10.302106,-3.52369 -3.88169,0 -7.45572,1.3153 -10.30235,3.52369 z"
       inkscape:connector-curvature="0"
       style="fill:#611e82;stroke:#ffffff;stroke-width:0.119;stroke-miterlimit:10;stroke-opacity:1;stroke-dasharray:none" />
    <path
       sodipodi:type="inkscape:offset"
       inkscape:radius="0"
       inkscape:original="M 721.76562 38.847656 L 721.76562 139.53125 L 735.16016 139.53125 L 735.16016 38.847656 L 721.76562 38.847656 z M 210.91602 41.646484 C 209.00247 41.646484 207.18052 42.033047 205.44922 42.806641 C 203.76348 43.534729 202.28351 44.536367 201.00781 45.810547 C 199.73211 47.039196 198.72897 48.518812 198 50.248047 C 197.27103 51.931776 196.90625 53.729343 196.90625 55.640625 L 196.90625 125.53711 C 196.90625 127.44837 197.27103 129.26881 198 130.99805 C 198.72897 132.68178 199.73211 134.16137 201.00781 135.43555 C 202.28351 136.7097 203.76348 137.70939 205.44922 138.4375 C 207.18052 139.16559 209.00247 139.53125 210.91602 139.53125 L 264.08594 139.53125 C 265.99949 139.53125 267.79863 139.16559 269.48438 138.4375 C 271.21567 137.70939 272.72039 136.7097 273.99609 135.43555 C 275.27179 134.16137 276.27298 132.68178 277.00195 130.99805 C 277.73092 129.26881 278.0957 127.44837 278.0957 125.53711 L 278.0957 87.789062 L 237.50195 87.789062 L 237.50195 101.7832 L 264.08594 101.7832 L 264.08594 125.53711 L 210.91602 125.53711 L 210.91602 55.640625 L 264.08594 55.640625 L 264.08594 68.267578 L 278.0957 68.267578 L 278.0957 55.640625 C 278.0957 53.729343 277.73092 51.931776 277.00195 50.248047 C 276.27298 48.518812 275.27179 47.039196 273.99609 45.810547 C 272.72039 44.536367 271.21567 43.534729 269.48438 42.806641 C 267.79863 42.033047 265.99949 41.646484 264.08594 41.646484 L 210.91602 41.646484 z M 486.4668 41.646484 C 484.55325 41.646484 482.7313 42.033047 481 42.806641 C 479.31426 43.534729 477.83429 44.536367 476.55859 45.810547 C 475.2829 47.039196 474.27975 48.518812 473.55078 50.248047 C 472.82181 51.931776 472.45703 53.729343 472.45703 55.640625 L 472.45703 83.626953 C 472.45703 85.538235 472.82181 87.356702 473.55078 89.085938 C 474.27975 90.769666 475.2829 92.249257 476.55859 93.523438 C 477.83429 94.752086 479.31426 95.75375 481 96.527344 C 482.7313 97.255457 484.55325 97.619141 486.4668 97.619141 L 534.0332 97.619141 L 534.0332 125.53711 L 485.10156 125.53711 L 485.10156 112.97852 L 471.0918 112.97852 L 471.0918 125.53711 C 471.0918 127.44837 471.45462 129.26881 472.18359 130.99805 C 472.91256 132.68178 473.91571 134.16137 475.19141 135.43555 C 476.4671 136.7097 477.94707 137.70939 479.63281 138.4375 C 481.36412 139.16559 483.18801 139.53125 485.10156 139.53125 L 534.0332 139.53125 C 535.94675 139.53125 537.7459 139.16559 539.43164 138.4375 C 541.16294 137.70939 542.66766 136.7097 543.94336 135.43555 C 545.21906 134.16137 546.22025 132.68178 546.94922 130.99805 C 547.67819 129.26881 548.04297 127.44837 548.04297 125.53711 L 548.04297 97.619141 C 548.04297 95.707884 547.67819 93.910293 546.94922 92.226562 C 546.22025 90.497328 545.21906 88.996811 543.94336 87.722656 C 542.66766 86.448477 541.16294 85.446863 539.43164 84.71875 C 537.7459 83.990637 535.94675 83.626953 534.0332 83.626953 L 486.4668 83.626953 L 486.4668 55.640625 L 534.0332 55.640625 L 534.0332 68.267578 L 548.04297 68.267578 L 548.04297 55.640625 C 548.04297 53.729343 547.67819 51.931776 546.94922 50.248047 C 546.22025 48.518812 545.21906 47.039196 543.94336 45.810547 C 542.66766 44.536367 541.16294 43.534729 539.43164 42.806641 C 537.7459 42.033047 535.94675 41.646484 534.0332 41.646484 L 486.4668 41.646484 z M 585.49414 44.445312 L 585.49414 66.833984 L 567.72461 66.833984 L 567.72461 80.28125 L 585.49414 80.28125 L 585.49414 126.08398 C 585.49414 127.94974 585.83612 129.70159 586.51953 131.33984 C 587.2485 132.97807 588.2269 134.41005 589.45703 135.63867 C 590.68717 136.82184 592.12349 137.77775 593.76367 138.50586 C 595.40386 139.18844 597.13461 139.53125 598.95703 139.53125 L 622.87695 139.53125 L 622.87695 126.08398 L 598.95703 126.08398 L 598.95703 80.28125 L 622.87695 80.28125 L 622.87695 66.833984 L 598.95703 66.833984 L 598.95703 44.445312 L 585.49414 44.445312 z M 315.27344 66.833984 C 313.45101 66.833984 311.72026 67.197693 310.08008 67.925781 C 308.43989 68.608364 307.00358 69.564295 305.77344 70.792969 C 304.58886 71.976137 303.63327 73.387167 302.9043 75.025391 C 302.22089 76.663614 301.87891 78.415524 301.87891 80.28125 L 301.87891 126.08398 C 301.87891 127.94974 302.22089 129.70159 302.9043 131.33984 C 303.63327 132.97807 304.58886 134.41005 305.77344 135.63867 C 307.00358 136.82184 308.43989 137.77775 310.08008 138.50586 C 311.72026 139.18844 313.45101 139.53125 315.27344 139.53125 L 363.45312 139.53125 L 363.45312 126.08398 L 315.27344 126.08398 L 315.27344 110.04297 L 363.45312 110.04297 L 363.45312 80.28125 C 363.45312 78.415524 363.0903 76.663614 362.36133 75.025391 C 361.67792 73.387167 360.72037 71.976137 359.49023 70.792969 C 358.30565 69.564295 356.89409 68.608364 355.25391 67.925781 C 353.61372 67.197693 351.85822 66.833984 349.99023 66.833984 L 315.27344 66.833984 z M 399.19531 66.833984 C 397.37289 66.833984 395.64214 67.197693 394.00195 67.925781 C 392.36177 68.608364 390.92741 69.564295 389.69727 70.792969 C 388.51269 71.976137 387.55514 73.387167 386.82617 75.025391 C 386.14276 76.663614 385.80078 78.415524 385.80078 80.28125 L 385.80078 126.08398 C 385.80078 127.94974 386.14276 129.70159 386.82617 131.33984 C 387.55514 132.97807 388.51269 134.41005 389.69727 135.63867 C 390.92741 136.82184 392.36177 137.77775 394.00195 138.50586 C 395.64214 139.18844 397.37289 139.53125 399.19531 139.53125 L 435.34766 139.53125 C 437.21564 139.53125 438.94835 139.18844 440.54297 138.50586 C 442.18316 137.77775 443.59472 136.82184 444.7793 135.63867 C 446.00943 134.41005 446.96698 132.97807 447.65039 131.33984 C 448.37936 129.70159 448.74414 127.94974 448.74414 126.08398 L 448.74414 80.28125 C 448.74414 78.415524 448.37936 76.663614 447.65039 75.025391 C 446.96698 73.387167 446.00943 71.976137 444.7793 70.792969 C 443.59472 69.564295 442.18316 68.608364 440.54297 67.925781 C 438.94835 67.197693 437.21564 66.833984 435.34766 66.833984 L 399.19531 66.833984 z M 636.81836 66.833984 L 665.38477 132.97852 L 650.14453 168.88281 L 663.53906 168.88281 L 707.61914 66.833984 L 693.47266 66.833984 L 672.21875 116.86914 L 650.96484 66.833984 L 636.81836 66.833984 z M 770.9707 66.833984 C 769.14828 66.833984 767.41753 67.197693 765.77734 67.925781 C 764.13716 68.608364 762.7028 69.564295 761.47266 70.792969 C 760.28808 71.976137 759.33053 73.387167 758.60156 75.025391 C 757.91815 76.663614 757.57617 78.415524 757.57617 80.28125 L 757.57617 126.08398 C 757.57617 127.94974 757.91815 129.70159 758.60156 131.33984 C 759.33053 132.97807 760.28808 134.41005 761.47266 135.63867 C 762.7028 136.82184 764.13716 137.77775 765.77734 138.50586 C 767.41753 139.18844 769.14828 139.53125 770.9707 139.53125 L 819.15234 139.53125 L 819.15234 126.08398 L 770.9707 126.08398 L 770.9707 110.04297 L 819.15234 110.04297 L 819.15234 80.28125 C 819.15234 78.415524 818.78756 76.663614 818.05859 75.025391 C 817.37518 73.387167 816.41764 71.976137 815.1875 70.792969 C 814.00292 69.564295 812.59135 68.608364 810.95117 67.925781 C 809.31099 67.197693 807.55549 66.833984 805.6875 66.833984 L 770.9707 66.833984 z M 841.5 66.833984 L 841.5 139.53125 L 854.89453 139.53125 L 854.89453 80.28125 L 882.64062 80.28125 L 882.64062 92.568359 L 896.10352 92.568359 L 896.10352 80.28125 C 896.10352 78.415524 895.73871 76.663614 895.00977 75.025391 C 894.32633 73.387167 893.37077 71.976137 892.14062 70.792969 C 890.91049 69.564295 889.47417 68.608364 887.83398 67.925781 C 886.23938 67.197693 884.50862 66.833984 882.64062 66.833984 L 868.35742 66.833984 C 866.535 66.833984 864.82704 67.174839 863.23242 67.857422 C 861.6378 68.494499 860.22428 69.404722 858.99414 70.587891 C 857.80956 71.725554 856.85397 73.090901 856.125 74.683594 C 855.39602 76.230806 854.98564 77.893229 854.89453 79.667969 L 854.89453 66.833984 L 841.5 66.833984 z M 315.27344 80.28125 L 349.99023 80.28125 L 349.99023 96.595703 L 315.27344 96.595703 L 315.27344 80.28125 z M 399.19531 80.28125 L 435.34766 80.28125 L 435.34766 126.08398 L 399.19531 126.08398 L 399.19531 80.28125 z M 770.9707 80.28125 L 805.6875 80.28125 L 805.6875 96.595703 L 770.9707 96.595703 L 770.9707 80.28125 z "
       style="font-style:normal;font-variant:normal;font-weight:normal;font-stretch:normal;font-size:37.00954056px;line-height:1.25;font-family:Aldrich;-inkscape-font-specification:'Aldrich, Normal';font-variant-ligatures:normal;font-variant-caps:normal;font-variant-numeric:normal;font-feature-settings:normal;text-align:start;letter-spacing:0px;word-spacing:0px;writing-mode:lr-tb;text-anchor:start;fill:#272c82;fill-opacity:1;stroke:none;stroke-width:3.49696469;stroke-opacity:1"
       id="path2961"
       d="M 721.76562,38.847656 V 139.53125 h 13.39454 V 38.847656 Z m -510.8496,2.798828 c -1.91355,0 -3.7355,0.386563 -5.4668,1.160157 -1.68574,0.728088 -3.16571,1.729726 -4.44141,3.003906 -1.2757,1.228649 -2.27884,2.708265 -3.00781,4.4375 -0.72897,1.683729 -1.09375,3.481296 -1.09375,5.392578 v 69.896485 c 0,1.91126 0.36478,3.7317 1.09375,5.46094 0.72897,1.68373 1.73211,3.16332 3.00781,4.4375 1.2757,1.27415 2.75567,2.27384 4.44141,3.00195 1.7313,0.72809 3.55325,1.09375 5.4668,1.09375 h 53.16992 c 1.91355,0 3.71269,-0.36566 5.39844,-1.09375 1.73129,-0.72811 3.23601,-1.7278 4.51171,-3.00195 1.2757,-1.27418 2.27689,-2.75377 3.00586,-4.4375 0.72897,-1.72924 1.09375,-3.54968 1.09375,-5.46094 V 87.789062 H 237.50195 V 101.7832 h 26.58399 v 23.75391 H 210.91602 V 55.640625 h 53.16992 V 68.267578 H 278.0957 V 55.640625 c 0,-1.911282 -0.36478,-3.708849 -1.09375,-5.392578 -0.72897,-1.729235 -1.73016,-3.208851 -3.00586,-4.4375 -1.2757,-1.27418 -2.78042,-2.275818 -4.51171,-3.003906 -1.68575,-0.773594 -3.48489,-1.160157 -5.39844,-1.160157 z m 275.55078,0 c -1.91355,0 -3.7355,0.386563 -5.4668,1.160157 -1.68574,0.728088 -3.16571,1.729726 -4.44141,3.003906 -1.27569,1.228649 -2.27884,2.708265 -3.00781,4.4375 -0.72897,1.683729 -1.09375,3.481296 -1.09375,5.392578 v 27.986328 c 0,1.911282 0.36478,3.729749 1.09375,5.458985 0.72897,1.683728 1.73212,3.163319 3.00781,4.4375 1.2757,1.228648 2.75567,2.230312 4.44141,3.003906 1.7313,0.728113 3.55325,1.091797 5.4668,1.091797 h 47.5664 V 125.53711 H 485.10156 V 112.97852 H 471.0918 v 12.55859 c 0,1.91126 0.36282,3.7317 1.09179,5.46094 0.72897,1.68373 1.73212,3.16332 3.00782,4.4375 1.27569,1.27415 2.75566,2.27384 4.4414,3.00195 1.73131,0.72809 3.5552,1.09375 5.46875,1.09375 h 48.93164 c 1.91355,0 3.7127,-0.36566 5.39844,-1.09375 1.7313,-0.72811 3.23602,-1.7278 4.51172,-3.00195 1.2757,-1.27418 2.27689,-2.75377 3.00586,-4.4375 0.72897,-1.72924 1.09375,-3.54968 1.09375,-5.46094 V 97.619141 c 0,-1.911257 -0.36478,-3.708848 -1.09375,-5.392579 -0.72897,-1.729234 -1.73016,-3.229751 -3.00586,-4.503906 -1.2757,-1.274179 -2.78042,-2.275793 -4.51172,-3.003906 -1.68574,-0.728113 -3.48489,-1.091797 -5.39844,-1.091797 H 486.4668 V 55.640625 h 47.5664 v 12.626953 h 14.00977 V 55.640625 c 0,-1.911282 -0.36478,-3.708849 -1.09375,-5.392578 -0.72897,-1.729235 -1.73016,-3.208851 -3.00586,-4.4375 -1.2757,-1.27418 -2.78042,-2.275818 -4.51172,-3.003906 -1.68574,-0.773594 -3.48489,-1.160157 -5.39844,-1.160157 z m 99.02734,2.798828 V 66.833984 H 567.72461 V 80.28125 h 17.76953 v 45.80273 c 0,1.86576 0.34198,3.61761 1.02539,5.25586 0.72897,1.63823 1.70737,3.07021 2.9375,4.29883 1.23014,1.18317 2.66646,2.13908 4.30664,2.86719 1.64019,0.68258 3.37094,1.02539 5.19336,1.02539 h 23.91992 V 126.08398 H 598.95703 V 80.28125 h 23.91992 V 66.833984 H 598.95703 V 44.445312 Z m -270.2207,22.388672 c -1.82243,0 -3.55318,0.363709 -5.19336,1.091797 -1.64019,0.682583 -3.0765,1.638514 -4.30664,2.867188 -1.18458,1.183168 -2.14017,2.594198 -2.86914,4.232422 -0.68341,1.638223 -1.02539,3.390133 -1.02539,5.255859 v 45.80273 c 0,1.86576 0.34198,3.61761 1.02539,5.25586 0.72897,1.63823 1.68456,3.07021 2.86914,4.29883 1.23014,1.18317 2.66645,2.13908 4.30664,2.86719 1.64018,0.68258 3.37093,1.02539 5.19336,1.02539 h 48.17968 v -13.44727 h -48.17968 v -16.04101 h 48.17968 V 80.28125 c 0,-1.865726 -0.36282,-3.617636 -1.09179,-5.255859 -0.68341,-1.638224 -1.64096,-3.049254 -2.8711,-4.232422 -1.18458,-1.228674 -2.59614,-2.184605 -4.23632,-2.867188 -1.64019,-0.728088 -3.39569,-1.091797 -5.26368,-1.091797 z m 83.92187,0 c -1.82242,0 -3.55317,0.363709 -5.19336,1.091797 -1.64018,0.682583 -3.07454,1.638514 -4.30468,2.867188 -1.18458,1.183168 -2.14213,2.594198 -2.8711,4.232422 -0.68341,1.638223 -1.02539,3.390133 -1.02539,5.255859 v 45.80273 c 0,1.86576 0.34198,3.61761 1.02539,5.25586 0.72897,1.63823 1.68652,3.07021 2.8711,4.29883 1.23014,1.18317 2.6645,2.13908 4.30468,2.86719 1.64019,0.68258 3.37094,1.02539 5.19336,1.02539 h 36.15235 c 1.86798,0 3.60069,-0.34281 5.19531,-1.02539 1.64019,-0.72811 3.05175,-1.68402 4.23633,-2.86719 1.23013,-1.22862 2.18768,-2.6606 2.87109,-4.29883 0.72897,-1.63825 1.09375,-3.3901 1.09375,-5.25586 V 80.28125 c 0,-1.865726 -0.36478,-3.617636 -1.09375,-5.255859 -0.68341,-1.638224 -1.64096,-3.049254 -2.87109,-4.232422 -1.18458,-1.228674 -2.59614,-2.184605 -4.23633,-2.867188 -1.59462,-0.728088 -3.32733,-1.091797 -5.19531,-1.091797 z m 237.62305,0 28.56641,66.144536 -15.24024,35.90429 h 13.39453 L 707.61914,66.833984 H 693.47266 L 672.21875,116.86914 650.96484,66.833984 Z m 134.15234,0 c -1.82242,0 -3.55317,0.363709 -5.19336,1.091797 -1.64018,0.682583 -3.07454,1.638514 -4.30468,2.867188 -1.18458,1.183168 -2.14213,2.594198 -2.8711,4.232422 -0.68341,1.638223 -1.02539,3.390133 -1.02539,5.255859 v 45.80273 c 0,1.86576 0.34198,3.61761 1.02539,5.25586 0.72897,1.63823 1.68652,3.07021 2.8711,4.29883 1.23014,1.18317 2.6645,2.13908 4.30468,2.86719 1.64019,0.68258 3.37094,1.02539 5.19336,1.02539 h 48.18164 V 126.08398 H 770.9707 v -16.04101 h 48.18164 V 80.28125 c 0,-1.865726 -0.36478,-3.617636 -1.09375,-5.255859 -0.68341,-1.638224 -1.64095,-3.049254 -2.87109,-4.232422 -1.18458,-1.228674 -2.59615,-2.184605 -4.23633,-2.867188 -1.64018,-0.728088 -3.39568,-1.091797 -5.26367,-1.091797 z m 70.5293,0 v 72.697266 h 13.39453 v -59.25 h 27.74609 v 12.287109 h 13.4629 V 80.28125 c 0,-1.865726 -0.36481,-3.617636 -1.09375,-5.255859 -0.68344,-1.638224 -1.639,-3.049254 -2.86915,-4.232422 -1.23013,-1.228674 -2.66645,-2.184605 -4.30664,-2.867188 -1.5946,-0.728088 -3.32536,-1.091797 -5.19336,-1.091797 h -14.2832 c -1.82242,0 -3.53038,0.340855 -5.125,1.023438 -1.59462,0.637077 -3.00814,1.5473 -4.23828,2.730469 -1.18458,1.137663 -2.14017,2.50301 -2.86914,4.095703 -0.72898,1.547212 -1.13936,3.209635 -1.23047,4.984375 V 66.833984 Z M 315.27344,80.28125 h 34.71679 v 16.314453 h -34.71679 z m 83.92187,0 h 36.15235 v 45.80273 h -36.15235 z m 371.77539,0 h 34.7168 v 16.314453 h -34.7168 z"
       transform="matrix(0.26458333,0,0,0.26458333,-130.11846,95.265474)" />
  </g>
</svg>
